<svg width="170" height="122" viewBox="0 0 170 122" fill="none" xmlns="http://www.w3.org/2000/svg">
<g clip-path="url(#clip0)">
<path d="M34.5529 54.9264C34.5529 50.4753 35.0923 46.1592 36.0364 42.0228C44.9828 21.3862 65.8427 6.90906 90.1643 6.90906C122.623 6.90906 148.923 32.7161 148.923 64.5029C148.923 78.2606 143.978 90.8944 135.75 100.831C125.815 110.272 112.193 116.072 96.6831 116.072C62.6958 116.072 34.5529 88.1968 34.5529 54.9264Z" fill="#4B5C65"/>
<path d="M36.4021 42.1452C35.4167 46.2674 34.924 50.5239 34.924 55.0045C34.924 88.161 62.963 115.941 96.8695 115.941C112.322 115.941 125.894 110.161 135.793 100.751C125.043 113.7 108.694 121.945 90.3301 121.945C57.9912 121.945 31.7886 96.2261 31.7886 64.5482C31.7886 56.5727 33.4459 49.0005 36.4021 42.1452Z" fill="#10B0E6"/>
<path d="M90.2902 6.98347C66.0218 6.98347 45.1625 21.4023 36.2805 42.0007C42.2467 16.7005 65.5283 -0.98718 92.9369 0.0427367C124.114 1.20699 150.58 26.328 152.599 57.1358C153.72 74.1966 147.216 89.7349 135.822 100.527C144.031 90.6753 148.965 78.0924 148.965 64.3452C148.965 32.6866 122.678 6.98347 90.2902 6.98347Z" fill="#2FB5C0"/>
<path d="M80.7007 67.9533L55.2845 24.8726H79.4779L90.7449 46.0627L101.925 24.8726H126.118L100.789 67.9533V100.527H80.6134V67.9533H80.7007Z" fill="white"/>
<path d="M0 84.6279L31.4912 24.8726H50.9108V69.36H55.2845V90.8579H50.9108V101.563H28.3421V90.8579H0V84.6279ZM28.3421 78.8367V60.4099L18.7198 78.8367H28.3421Z" fill="white"/>
<path d="M133.243 78.3676L136.364 72.0654L139.918 64.8879C140.612 63.3999 141.218 62.0869 141.739 60.9491C142.172 59.8987 142.605 58.9359 142.866 58.0606C143.126 57.1853 143.299 56.485 143.386 55.7848C143.472 55.0845 143.472 54.2968 143.472 53.509C143.472 51.2332 142.692 49.3951 141.132 48.0821C139.571 46.7692 137.317 46.1564 134.543 46.1564H130.209V25.0617C131.249 24.7991 132.116 24.624 132.896 24.449C133.676 24.2739 134.456 24.1864 135.237 24.0988C136.017 24.0113 136.797 23.9238 137.577 23.9238C138.444 23.9238 139.398 23.8362 140.438 23.8362C146.246 23.8362 151.188 24.624 155.089 26.112C159.164 27.6876 162.458 30.4885 164.972 34.5149C167.486 38.4538 168.7 42.9178 168.7 47.9071C168.7 50.0078 168.526 52.021 168.093 54.1217C167.659 56.2224 167.053 58.4107 166.186 60.8615C165.319 63.2248 164.192 65.9383 162.718 68.9143C161.244 71.8903 159.51 75.2165 157.43 78.9803L156.389 80.9059H170L163.672 101.563H121.626L133.243 78.3676Z" fill="white"/>
</g>
<defs>
<clipPath id="clip0">
<rect width="170" height="122" fill="white"/>
</clipPath>
</defs>
</svg>
